<svg width="24" height="14" viewBox="0 0 24 14" fill="none" xmlns="http://www.w3.org/2000/svg">
<path d="M0 1C0 0.447715 0.447715 0 1 0H15C15.5523 0 16 0.447715 16 1C16 1.55228 15.5523 2 15 2H1C0.447715 2 0 1.55228 0 1Z" fill="#151513"/>
<path d="M8 7C8 6.44772 8.44772 6 9 6H23C23.5523 6 24 6.44772 24 7C24 7.55228 23.5523 8 23 8H9C8.44772 8 8 7.55228 8 7Z" fill="#151513"/>
<path d="M0 13C0 12.4477 0.447715 12 1 12H23C23.5523 12 24 12.4477 24 13C24 13.5523 23.5523 14 23 14H1C0.447716 14 0 13.5523 0 13Z" fill="#151513"/>
</svg>
