<svg width="80" height="80" viewBox="0 0 80 80" fill="none" xmlns="http://www.w3.org/2000/svg">
<rect width="80" height="80" rx="40" fill="#F4F4F4"/>
<path d="M40.5 20C35.26 20 31 24.2645 31 29.51C31 34.6554 35.02 38.8198 40.26 39C40.42 38.98 40.58 38.98 40.7 39C40.74 39 40.76 39 40.8 39C40.82 39 40.82 39 40.84 39C45.96 38.8198 49.98 34.6554 50 29.51C50 24.2645 45.74 20 40.5 20Z" fill="#9DA4B1"/>
<path d="M50.1023 44.7161C44.554 41.0946 35.5057 41.0946 29.9176 44.7161C27.392 46.371 26 48.6101 26 51.0049C26 53.3997 27.392 55.6193 29.8977 57.2547C32.6818 59.0849 36.3409 60 40 60C43.6591 60 47.3182 59.0849 50.1023 57.2547C52.608 55.5998 54 53.3802 54 50.9659C53.9801 48.5711 52.608 46.3515 50.1023 44.7161Z" fill="#9DA4B1"/>
</svg>
